<svg xmlns="http://www.w3.org/2000/svg" fill="none" viewBox="0 0 41 41"><path d="M21.0689 20.5036l.063-.0603.1247-.122.085-.0835.2562-.2536.3481-.3439.2987-.296.2809-.2782.2933-.2891.2686-.2659.3741-.37.2179-.2055.4193-.359.4042-.3056.5975-.3864.6166-.3303.6057-.2645.3481-.1274.1768-.0576c-.5276-2.0774-1.4923-3.9794-2.7928-5.6033-.2521-.3179-.6386-.5015-1.0469-.5015H12.2206c-.1959 0-.2768.2494-.1192.3645 3.6698 2.69 6.7311 6.1583 8.9428 10.1624.0082-.0069.0164-.0151.0247-.0233z" fill="#00d6b9"/><path d="M16.7907 30c5.5704 0 10.4227-3.0737 12.9551-7.6177.0891-.1589.1754-.3206.2576-.4837-.1288.2466-.2699.4796-.4248.6989-.0548.0781-.111.1548-.1699.2302-.0726.0945-.148.185-.2247.274-.0617.0699-.1234.1384-.1878.2056-.1301.1357-.2658.2631-.407.3837-.0781.0671-.1575.1315-.2398.1946-.0959.0726-.1932.1425-.2918.2096-.0631.0425-.1261.0836-.1905.122s-.1343.0808-.2042.1192c-.1398.0781-.2823.1494-.4275.2152-.1261.0575-.2549.1096-.3851.1575-.1412.0521-.285.0973-.4303.1384-.2165.0603-.4358.1069-.6605.1426-.1617.0246-.3248.0438-.4906.0548-.1726.0123-.348.0164-.5248.0137-.1932-.0028-.3878-.0151-.5851-.037-.1439-.0151-.2892-.037-.4331-.0617-.126-.0219-.2521-.0493-.3795-.0795l-.2001-.0507-.555-.1548-.2754-.0809-.4098-.1247-.3343-.1069-.3166-.1041-.2151-.0726-.2604-.0905-.1863-.0657-.3673-.1343-.2124-.0809-.2837-.1096-.2987-.1192-.1932-.0795-.2398-.1-.185-.0782-.1919-.0835-.1658-.0727-.1521-.0671-.1534-.0699-.159-.0726-.2001-.0932-.2083-.0987-.222-.1082-.1891-.0932c-3.3354-1.6677-6.2953-3.8904-8.82217-6.5831C8.22336 15.8513 8 15.9404 8 16.124l.00548 9.5197v.7729c0 .4481.222.8701.59473 1.1182C10.9462 29.0915 13.7622 30 16.7907 30z" fill="#3370ff"/><path d="M29.7458 22.3823c-.0027.0041-.0055.0082-.0068.0124l.0068-.0124.0507-.0932-.0507.0932zm.2316-.4357l.0137-.0247.0068-.0123-.0205.037z" fill="#133c92"/><path d="M33.1511 16.5817c-1.1292-.5563-2.3995-.8688-3.7438-.8688-.7989 0-1.5717.1096-2.3035.3166l-.2521.0753-.1768.0576-.3481.1274-.6056.2645-.6167.3303-.5975.3864-.4042.3056-.4193.359-.2179.2055-.3741.37-.2686.2659-.2933.2891-.2809.2782-.2987.296-.3481.3439-.2562.2536-.085.0835-.1247.122-.063.0603-.0946.0904-.1055.0987c-.9236.8482-1.9555 1.5814-3.0723 2.1747l.2001.0932.159.0726.1534.0699.1521.0672.1659.0726.1918.0836.185.0781.2398.1.1932.0795.2987.1192.2837.1097.2124.0808.3673.1343.1863.0658.2604.0904.2151.0726.3166.1042.3343.1069.4098.1247.2754.0808.555.1549.2001.0507.3795.0794.4331.0617.5851.037.5248-.0137.4906-.0548c.2247-.0343.444-.0822.6605-.1425l.4303-.1384.3851-.1576.4275-.2152.2042-.1192.1905-.1219.2918-.2097.2398-.1946.407-.3837.1878-.2055.2247-.2741.1699-.2302c.1535-.2179.2933-.4495.4207-.6934l.1439-.2878 1.3046-2.5995-.0028.0055c.4098-.9154.9894-1.7403 1.6965-2.4392z" fill="#133c9a"/></svg>
